<svg t="1704359976157" class="icon" viewBox="0 0 1024 1024" version="1.1" xmlns="http://www.w3.org/2000/svg" p-id="1607" width="32" height="32"><path d="M512 0C229.222 0 0 229.222 0 512s229.222 512 512 512 512-229.222 512-512S794.778 0 512 0z m203.776 434.483c-1.024 4.455-3.533 11.06-7.014 18.995h0.05l-0.409 0.768c-20.48 45.978-73.881 136.192-73.881 136.192l-0.308-0.563-15.616 28.57h75.264L550.144 819.2l32.614-136.602H523.52l20.582-90.316c-16.64 4.25-36.352 10.035-59.648 17.92 0 0-31.488 19.404-90.777-37.325 0 0-39.987-37.018-16.845-46.234 9.882-3.942 47.872-8.96 77.824-13.158 40.448-5.786 65.28-8.807 65.28-8.807s-124.672 1.946-154.163-2.918c-29.594-4.864-67.072-56.678-75.06-102.246 0 0-12.39-24.986 26.573-13.159 38.912 11.776 200.039 46.08 200.039 46.08s-209.613-67.481-223.488-83.968c-13.978-16.384-41.063-89.805-37.53-134.912 0 0 1.536-11.264 12.493-8.243 0 0 154.931 74.342 260.864 115.046 105.882 40.704 197.99 61.44 186.112 114.125z" fill="#4D70EB" p-id="1608"></path></svg>