
<svg width="120px" height="120px" viewBox="0 0 120 120" version="1.1" xmlns="http://www.w3.org/2000/svg" xmlns:xlink="http://www.w3.org/1999/xlink">
    <defs>
        <path d="M45.4971733,90.8994709 C70.6245682,90.8994709 93.454874,70.5509312 96.4900884,45.4497354 C99.5253029,20.3485397 81.616052,0 56.4886571,0 C49.4138373,0 42.3390176,0 35.2641978,0 C32.1662601,-1.20727491e-15 29.3157378,1.69216262 27.8322813,4.41182712 L6.89303512,42.8003629 C6.61317991,43.3134296 6.80223524,43.9562199 7.31530202,44.2360751 C7.47073989,44.3208596 7.64496723,44.3652866 7.82202468,44.3652866 L28.2891033,44.3652866 C28.8735316,44.3652866 29.3473043,44.8390593 29.3473043,45.4234877 C29.3473043,45.6281673 29.2879451,45.8284545 29.1764191,46.0000812 L1.0623185,89.2646763 C0.743874682,89.7547273 0.882989783,90.4101418 1.37304078,90.7285857 C1.54466744,90.8401117 1.74495465,90.8994709 1.94963432,90.8994709 C16.4654806,90.8994709 30.981327,90.8994709 45.4971733,90.8994709 Z" id="path-mjkgh5xz8t-1"></path>
        <linearGradient x1="84.6640513%" y1="30.7806514%" x2="10.5134678%" y2="78.5114923%" id="linearGradient-mjkgh5xz8t-3">
            <stop stop-color="#007FFF" offset="0%"></stop>
            <stop stop-color="#59BFFF" offset="44.1379629%"></stop>
            <stop stop-color="#5FE9FF" offset="100%"></stop>
        </linearGradient>
    </defs>
    <g id="Info" stroke="none" stroke-width="1" fill="none" fill-rule="evenodd">
        <g id="入门" transform="translate(-62.000000, -100.000000)">
            <g id="编组-2备份" transform="translate(62.000000, 100.000000)">
                <rect id="矩形" x="0" y="0" width="120" height="120"></rect>
                <g id="路径-3备份" transform="translate(11.322751, 14.603175)">
                    <mask id="mask-mjkgh5xz8t-2" fill="white">
                        <use xlink:href="#path-mjkgh5xz8t-1"></use>
                    </mask>
                    <use id="蒙版" fill="#007FFF" xlink:href="#path-mjkgh5xz8t-1"></use>
                    <polygon id="路径-3" fill="url(#linearGradient-mjkgh5xz8t-3)" mask="url(#mask-mjkgh5xz8t-2)" points="0 90.8994709 107.560688 11.3098594 64.0091118 -4.82790506 10.90534 -4.82790506"></polygon>
                </g>
            </g>
        </g>
    </g>
</svg>